<svg version="1.1" viewBox="0 0 468 144" xmlns="http://www.w3.org/2000/svg" xmlns:xlink="http://www.w3.org/1999/xlink">
    <defs>
        <linearGradient id="linear-gradient" x1="-431" x2="-139" y1="-132" y2="-132"
            gradientTransform="translate(607 196)" gradientUnits="userSpaceOnUse">
            <stop stop-color="#58def4" />
            <stop stop-color="#4ad4ee" />
            <stop stop-color="#37c6e5" />
            <stop stop-color="#2cbee0" />
            <stop stop-color="#28bbde" />
        </linearGradient>
        <linearGradient id="linearGradient6571" x1="-431" x2="-139" y1="-132" y2="-132"
            gradientTransform="translate(607 196)" gradientUnits="userSpaceOnUse" xlink:href="#linear-gradient" />
    </defs>
    <g fill="url(#linearGradient6571)">
        <path
            d="m188 129a12.6 12.6 0 0 1-12.6-12.6v-61.2a11.8 11.8 0 0 1 3.71-8.78 12.2 12.2 0 0 1 8.87-3.62h23.4a12.1 12.1 0 0 1 9 3.62 12 12 0 0 1 3.62 8.78v26.2a12.3 12.3 0 0 1-3.62 8.87 12 12 0 0 1-9 3.71h-19.8v12.6a6 6 0 0 0 1.81 4.4 6.23 6.23 0 0 0 4.59 1.77h22.4l3.62 16.2zm3.6-51.2h10a6.18 6.18 0 0 0 6.2-6.21v-6.37a6.16 6.16 0 0 0-6.2-6.2h-3.6a6.22 6.22 0 0 0-4.57 1.8 6 6 0 0 0-1.81 4.4z" />
        <path d="m231 129 16.2-43.1-16.2-43.1h16.2l8.1 21.5 8.1-21.5h16l-16 43.1 16 43.1h-16l-8.1-21.5-8.1 21.5z" />
        <path
            d="m301 129a12 12 0 0 1-9-3.7 12.3 12.3 0 0 1-3.62-8.87v-61a12.3 12.3 0 0 1 3.7-8.88 12 12 0 0 1 9-3.7h23.4a12.6 12.6 0 0 1 12.6 12.6v18.8h-16.2v-9a5.85 5.85 0 0 0-1.9-4.4 6.27 6.27 0 0 0-4.48-1.8h-3.61a6.16 6.16 0 0 0-6.21 6.2v41.4a6.18 6.18 0 0 0 6.21 6.21h3.61a6.28 6.28 0 0 0 4.48-1.81 5.84 5.84 0 0 0 1.9-4.4v-9h16.2v18.8a12.6 12.6 0 0 1-12.6 12.6z" />
        <path d="m347 20v-16.2l16.2-3.79v16.2zm0.34 109v-82.4l16.2-3.79v86.2z" />
        <path d="m378 129v-125l16.2-3.62v42.9h20.5l-3.79 16.2h-16.7v70z" />
        <path
            d="m432 129a12.6 12.6 0 0 1-12.6-12.6v-61.2a11.8 11.8 0 0 1 3.7-8.78 12.2 12.2 0 0 1 8.87-3.62h23.4a12.1 12.1 0 0 1 9 3.62 12 12 0 0 1 3.62 8.78v26.2a12.3 12.3 0 0 1-3.62 8.87 12 12 0 0 1-9 3.71h-19.8v12.6a6 6 0 0 0 1.81 4.4 6.23 6.23 0 0 0 4.57 1.81h22.4l3.62 16.2zm3.62-51.2h10a6.18 6.18 0 0 0 6.2-6.21v-6.37a6.16 6.16 0 0 0-6.2-6.2h-3.62a6.22 6.22 0 0 0-4.57 1.8 6 6 0 0 0-1.81 4.4z" />
    </g>
    <circle fill="#092139" cx="67.3" cy="76.9" r="66.9" />
    <g fill="#fcc200">
        <path
            d="m44.3 65.1 13.3 13.3-13.3 13.3a18.8 18.8 0 0 0-4.87 18.2 20.2 20.2 0 0 0 0.76 2.23l31.2-31.1a3.71 3.71 0 0 0 0-5.26l-31.2-31.1a18.2 18.2 0 0 0-0.76 2.26 18.8 18.8 0 0 0 4.87 18.2z" />
        <path
            d="m97.6 65.1-26.7-26.6a18.9 18.9 0 0 0-26.5-0.13l32.2 32.1a11.2 11.2 0 0 1 0 15.8l-32.2 32.1a18.9 18.9 0 0 0 26.5-0.13l26.7-26.6a18.8 18.8 0 0 0 0-26.6z" />
    </g>
</svg>

